<svg xmlns="http://www.w3.org/2000/svg" width="1100" height="760">
<rect width="100%" height="100%" fill="white"/>
<text x="550" y="42" text-anchor="middle" font-size="28" font-family="Arial" font-weight="bold">Genes with CPM &gt; 1 Across Three Groups</text>
<text x="550" y="74" text-anchor="middle" font-size="16" font-family="Arial">Overall Kruskal-Wallis p = 0.4915</text>
<line x1="110" y1="620" x2="1040" y2="620" stroke="#333" stroke-width="2"/>
<line x1="110" y1="110" x2="110" y2="620" stroke="#333" stroke-width="2"/>
<line x1="110" y1="620.0" x2="1040" y2="620.0" stroke="#dddddd" stroke-width="1"/>
<text x="98" y="625.0" text-anchor="end" font-size="14" font-family="Arial">0</text>
<line x1="110" y1="518.0" x2="1040" y2="518.0" stroke="#dddddd" stroke-width="1"/>
<text x="98" y="523.0" text-anchor="end" font-size="14" font-family="Arial">4864</text>
<line x1="110" y1="416.0" x2="1040" y2="416.0" stroke="#dddddd" stroke-width="1"/>
<text x="98" y="421.0" text-anchor="end" font-size="14" font-family="Arial">9729</text>
<line x1="110" y1="314.0" x2="1040" y2="314.0" stroke="#dddddd" stroke-width="1"/>
<text x="98" y="319.0" text-anchor="end" font-size="14" font-family="Arial">14593</text>
<line x1="110" y1="212.0" x2="1040" y2="212.0" stroke="#dddddd" stroke-width="1"/>
<text x="98" y="217.0" text-anchor="end" font-size="14" font-family="Arial">19457</text>
<line x1="110" y1="110.0" x2="1040" y2="110.0" stroke="#dddddd" stroke-width="1"/>
<text x="98" y="115.0" text-anchor="end" font-size="14" font-family="Arial">24321</text>
<text x="30" y="365.0" transform="rotate(-90 30 365.0)" text-anchor="middle" font-size="18" font-family="Arial">Number of genes with CPM &gt; 1</text>
<rect x="205.4" y="330.2" width="119.2" height="289.8" fill="#5b8ff9" fill-opacity="0.85" stroke="#333" stroke-width="1.2"/>
<line x1="265.0" y1="311.8" x2="265.0" y2="348.7" stroke="#222" stroke-width="2"/>
<line x1="247.0" y1="311.8" x2="283.0" y2="311.8" stroke="#222" stroke-width="2"/>
<line x1="247.0" y1="348.7" x2="283.0" y2="348.7" stroke="#222" stroke-width="2"/>
<circle cx="231.6" cy="309.8" r="4.8" fill="#222" fill-opacity="0.8"/>
<circle cx="239.0" cy="325.8" r="4.8" fill="#222" fill-opacity="0.8"/>
<circle cx="246.5" cy="312.9" r="4.8" fill="#222" fill-opacity="0.8"/>
<circle cx="253.9" cy="349.4" r="4.8" fill="#222" fill-opacity="0.8"/>
<circle cx="261.3" cy="338.9" r="4.8" fill="#222" fill-opacity="0.8"/>
<circle cx="268.7" cy="323.5" r="4.8" fill="#222" fill-opacity="0.8"/>
<circle cx="276.1" cy="300.6" r="4.8" fill="#222" fill-opacity="0.8"/>
<circle cx="283.5" cy="340.8" r="4.8" fill="#222" fill-opacity="0.8"/>
<circle cx="291.0" cy="354.0" r="4.8" fill="#222" fill-opacity="0.8"/>
<circle cx="298.4" cy="346.7" r="4.8" fill="#222" fill-opacity="0.8"/>
<text x="265.0" y="652" text-anchor="middle" font-size="16" font-family="Arial">Infected</text>
<text x="265.0" y="676" text-anchor="middle" font-size="13" font-family="Arial" fill="#555">n=10</text>
<rect x="515.4" y="309.6" width="119.2" height="310.4" fill="#61dDAa" fill-opacity="0.85" stroke="#333" stroke-width="1.2"/>
<line x1="575.0" y1="267.3" x2="575.0" y2="352.0" stroke="#222" stroke-width="2"/>
<line x1="557.0" y1="267.3" x2="593.0" y2="267.3" stroke="#222" stroke-width="2"/>
<line x1="557.0" y1="352.0" x2="593.0" y2="352.0" stroke="#222" stroke-width="2"/>
<circle cx="541.6" cy="251.3" r="4.8" fill="#222" fill-opacity="0.8"/>
<circle cx="543.9" cy="302.7" r="4.8" fill="#222" fill-opacity="0.8"/>
<circle cx="546.2" cy="268.5" r="4.8" fill="#222" fill-opacity="0.8"/>
<circle cx="548.5" cy="286.1" r="4.8" fill="#222" fill-opacity="0.8"/>
<circle cx="550.8" cy="337.6" r="4.8" fill="#222" fill-opacity="0.8"/>
<circle cx="553.1" cy="345.1" r="4.8" fill="#222" fill-opacity="0.8"/>
<circle cx="555.4" cy="345.8" r="4.8" fill="#222" fill-opacity="0.8"/>
<circle cx="557.7" cy="303.4" r="4.8" fill="#222" fill-opacity="0.8"/>
<circle cx="560.0" cy="344.4" r="4.8" fill="#222" fill-opacity="0.8"/>
<circle cx="562.3" cy="290.6" r="4.8" fill="#222" fill-opacity="0.8"/>
<circle cx="564.6" cy="350.1" r="4.8" fill="#222" fill-opacity="0.8"/>
<circle cx="566.9" cy="349.7" r="4.8" fill="#222" fill-opacity="0.8"/>
<circle cx="569.2" cy="344.1" r="4.8" fill="#222" fill-opacity="0.8"/>
<circle cx="571.5" cy="268.3" r="4.8" fill="#222" fill-opacity="0.8"/>
<circle cx="573.8" cy="229.4" r="4.8" fill="#222" fill-opacity="0.8"/>
<circle cx="576.2" cy="352.3" r="4.8" fill="#222" fill-opacity="0.8"/>
<circle cx="578.5" cy="312.1" r="4.8" fill="#222" fill-opacity="0.8"/>
<circle cx="580.8" cy="297.7" r="4.8" fill="#222" fill-opacity="0.8"/>
<circle cx="583.1" cy="337.4" r="4.8" fill="#222" fill-opacity="0.8"/>
<circle cx="585.4" cy="331.2" r="4.8" fill="#222" fill-opacity="0.8"/>
<circle cx="587.7" cy="365.5" r="4.8" fill="#222" fill-opacity="0.8"/>
<circle cx="590.0" cy="221.6" r="4.8" fill="#222" fill-opacity="0.8"/>
<circle cx="592.3" cy="281.8" r="4.8" fill="#222" fill-opacity="0.8"/>
<circle cx="594.6" cy="257.5" r="4.8" fill="#222" fill-opacity="0.8"/>
<circle cx="596.9" cy="337.8" r="4.8" fill="#222" fill-opacity="0.8"/>
<circle cx="599.2" cy="329.4" r="4.8" fill="#222" fill-opacity="0.8"/>
<circle cx="601.5" cy="352.1" r="4.8" fill="#222" fill-opacity="0.8"/>
<circle cx="603.8" cy="349.6" r="4.8" fill="#222" fill-opacity="0.8"/>
<circle cx="606.1" cy="316.9" r="4.8" fill="#222" fill-opacity="0.8"/>
<circle cx="608.4" cy="228.9" r="4.8" fill="#222" fill-opacity="0.8"/>
<text x="575.0" y="652" text-anchor="middle" font-size="16" font-family="Arial">Non-infectious SIRS</text>
<text x="575.0" y="676" text-anchor="middle" font-size="13" font-family="Arial" fill="#555">n=30</text>
<rect x="825.4" y="311.3" width="119.2" height="308.7" fill="#f6bd16" fill-opacity="0.85" stroke="#333" stroke-width="1.2"/>
<line x1="885.0" y1="271.5" x2="885.0" y2="351.1" stroke="#222" stroke-width="2"/>
<line x1="867.0" y1="271.5" x2="903.0" y2="271.5" stroke="#222" stroke-width="2"/>
<line x1="867.0" y1="351.1" x2="903.0" y2="351.1" stroke="#222" stroke-width="2"/>
<circle cx="851.6" cy="348.3" r="4.8" fill="#222" fill-opacity="0.8"/>
<circle cx="853.4" cy="331.2" r="4.8" fill="#222" fill-opacity="0.8"/>
<circle cx="855.2" cy="350.0" r="4.8" fill="#222" fill-opacity="0.8"/>
<circle cx="857.0" cy="285.9" r="4.8" fill="#222" fill-opacity="0.8"/>
<circle cx="858.8" cy="298.0" r="4.8" fill="#222" fill-opacity="0.8"/>
<circle cx="860.6" cy="349.7" r="4.8" fill="#222" fill-opacity="0.8"/>
<circle cx="862.4" cy="352.8" r="4.8" fill="#222" fill-opacity="0.8"/>
<circle cx="864.2" cy="289.7" r="4.8" fill="#222" fill-opacity="0.8"/>
<circle cx="866.1" cy="234.4" r="4.8" fill="#222" fill-opacity="0.8"/>
<circle cx="867.9" cy="273.1" r="4.8" fill="#222" fill-opacity="0.8"/>
<circle cx="869.7" cy="334.7" r="4.8" fill="#222" fill-opacity="0.8"/>
<circle cx="871.5" cy="252.7" r="4.8" fill="#222" fill-opacity="0.8"/>
<circle cx="873.3" cy="294.7" r="4.8" fill="#222" fill-opacity="0.8"/>
<circle cx="875.1" cy="343.8" r="4.8" fill="#222" fill-opacity="0.8"/>
<circle cx="876.9" cy="227.5" r="4.8" fill="#222" fill-opacity="0.8"/>
<circle cx="878.7" cy="351.6" r="4.8" fill="#222" fill-opacity="0.8"/>
<circle cx="880.5" cy="313.4" r="4.8" fill="#222" fill-opacity="0.8"/>
<circle cx="882.3" cy="298.3" r="4.8" fill="#222" fill-opacity="0.8"/>
<circle cx="884.1" cy="293.0" r="4.8" fill="#222" fill-opacity="0.8"/>
<circle cx="885.9" cy="345.7" r="4.8" fill="#222" fill-opacity="0.8"/>
<circle cx="887.7" cy="227.3" r="4.8" fill="#222" fill-opacity="0.8"/>
<circle cx="889.5" cy="345.0" r="4.8" fill="#222" fill-opacity="0.8"/>
<circle cx="891.3" cy="359.1" r="4.8" fill="#222" fill-opacity="0.8"/>
<circle cx="893.1" cy="342.7" r="4.8" fill="#222" fill-opacity="0.8"/>
<circle cx="894.9" cy="251.5" r="4.8" fill="#222" fill-opacity="0.8"/>
<circle cx="896.7" cy="304.4" r="4.8" fill="#222" fill-opacity="0.8"/>
<circle cx="898.5" cy="344.5" r="4.8" fill="#222" fill-opacity="0.8"/>
<circle cx="900.3" cy="292.3" r="4.8" fill="#222" fill-opacity="0.8"/>
<circle cx="902.1" cy="271.9" r="4.8" fill="#222" fill-opacity="0.8"/>
<circle cx="903.9" cy="283.7" r="4.8" fill="#222" fill-opacity="0.8"/>
<circle cx="905.8" cy="337.5" r="4.8" fill="#222" fill-opacity="0.8"/>
<circle cx="907.6" cy="343.9" r="4.8" fill="#222" fill-opacity="0.8"/>
<circle cx="909.4" cy="272.4" r="4.8" fill="#222" fill-opacity="0.8"/>
<circle cx="911.2" cy="294.5" r="4.8" fill="#222" fill-opacity="0.8"/>
<circle cx="913.0" cy="337.5" r="4.8" fill="#222" fill-opacity="0.8"/>
<circle cx="914.8" cy="346.5" r="4.8" fill="#222" fill-opacity="0.8"/>
<circle cx="916.6" cy="355.0" r="4.8" fill="#222" fill-opacity="0.8"/>
<circle cx="918.4" cy="350.4" r="4.8" fill="#222" fill-opacity="0.8"/>
<text x="885.0" y="652" text-anchor="middle" font-size="16" font-family="Arial">sepsis</text>
<text x="885.0" y="676" text-anchor="middle" font-size="13" font-family="Arial" fill="#555">n=38</text>
<line x1="265.0" y1="166.1" x2="265.0" y2="180.1" stroke="#111" stroke-width="1.8"/>
<line x1="575.0" y1="166.1" x2="575.0" y2="180.1" stroke="#111" stroke-width="1.8"/>
<line x1="265.0" y1="166.1" x2="575.0" y2="166.1" stroke="#111" stroke-width="1.8"/>
<text x="420.0" y="158.1" text-anchor="middle" font-size="15" font-family="Arial">p=0.422</text>
<line x1="265.0" y1="135.5" x2="265.0" y2="149.5" stroke="#111" stroke-width="1.8"/>
<line x1="885.0" y1="135.5" x2="885.0" y2="149.5" stroke="#111" stroke-width="1.8"/>
<line x1="265.0" y1="135.5" x2="885.0" y2="135.5" stroke="#111" stroke-width="1.8"/>
<text x="575.0" y="127.5" text-anchor="middle" font-size="15" font-family="Arial">p=0.422</text>
<line x1="575.0" y1="104.9" x2="575.0" y2="118.9" stroke="#111" stroke-width="1.8"/>
<line x1="885.0" y1="104.9" x2="885.0" y2="118.9" stroke="#111" stroke-width="1.8"/>
<line x1="575.0" y1="104.9" x2="885.0" y2="104.9" stroke="#111" stroke-width="1.8"/>
<text x="730.0" y="96.9" text-anchor="middle" font-size="15" font-family="Arial">p=0.858</text>
<rect x="110" y="698" width="18" height="18" fill="#5b8ff9" fill-opacity="0.85" stroke="#333" stroke-width="1"/>
<text x="138" y="712" font-size="14" font-family="Arial">Infected</text>
<rect x="350" y="698" width="18" height="18" fill="#61dDAa" fill-opacity="0.85" stroke="#333" stroke-width="1"/>
<text x="378" y="712" font-size="14" font-family="Arial">Non-infectious SIRS</text>
<rect x="590" y="698" width="18" height="18" fill="#f6bd16" fill-opacity="0.85" stroke="#333" stroke-width="1"/>
<text x="618" y="712" font-size="14" font-family="Arial">sepsis</text>
</svg>